<svg xmlns="http://www.w3.org/2000/svg" viewBox="0 0 780 500" width="780" height="500">
  <rect width="780" height="500" rx="40" fill="#fff"/>
  <path d="M622.5 201.7c-8.4 54.3-49.5 54.3-89.5 54.3h-22.7l15.9-100.9h22.7c40 0 82 13.5 73.6 46.6zm-16.4-82.5H487.4l-63.8 404.5h78.6l18.1-114.7h37.6c77.9 0 135-37.7 148.8-123.8 10.3-65-10.2-166-100.6-166z" fill="#009cde"/>
  <path d="M510 201.7c-8.4 54.3-49.5 54.3-89.5 54.3h-22.7l15.9-100.9h22.7c40 0 82 13.5 73.6 46.6zm-16.4-82.5H374.9L311.1 523.7h78.6l18.1-114.7h37.6c77.9 0 135-37.7 148.8-123.8 10.3-65-10.2-166-100.6-166z" fill="#012169"/>
</svg>
