<svg xmlns="http://www.w3.org/2000/svg" viewBox="0 0 780 500" width="780" height="500">
  <rect width="780" height="500" rx="40" fill="#fff"/>
  <path d="M293.2 348.7l33.4-195.8h53.4l-33.4 195.8zM540.7 157.2c-10.6-4-27.2-8.3-47.9-8.3-52.8 0-90 26.6-90.2 64.6-.3 28.1 26.5 43.8 46.8 53.2 20.8 9.6 27.8 15.8 27.7 24.4-.1 13.2-16.6 19.2-32 19.2-21.4 0-32.7-3-50.3-10.2l-6.9-3.1-7.5 43.8c12.5 5.5 35.6 10.2 59.6 10.5 56.2 0 92.6-26.3 93-66.8.2-22.3-14-39.2-44.8-53.2-18.6-9.1-30.1-15.1-30-24.3 0-8.1 9.7-16.8 30.6-16.8 17.5-.3 30.1 3.5 40 7.5l4.8 2.3 7.1-42.9m137.3-4.3h-41.3c-12.8 0-22.4 3.5-28 16.2l-79.4 179.6h56.1s9.2-24.1 11.2-29.4c6.1 0 60.7.1 68.5.1 1.6 6.9 6.5 29.3 6.5 29.3h49.6l-43.2-195.8zm-65.8 126.4c4.4-11.3 21.4-54.8 21.4-54.8-.3.5 4.4-11.4 7.1-18.8l3.6 17s10.3 47 12.5 56.6h-44.6zM327.1 152.9l-52.5 133.6-5.6-27.2c-9.7-31.2-39.9-65.1-73.7-82l47.8 171.3 56.6-.1 84.2-195.6h-56.8" fill="#1a1f71"/>
  <path d="M220.6 152.9h-86.2l-.7 3.8c67.1 16.2 111.5 55.4 129.9 102.5l-18.7-90.2c-3.2-12.3-12.8-15.7-24.3-16.1" fill="#f9a533"/>
</svg>
